<svg width="44" height="46" viewBox="0 0 44 46" fill="none" xmlns="http://www.w3.org/2000/svg">
<circle cx="22" cy="24" r="22" fill="#4D3C94"/>
<path d="M22.232 32.6C19.928 32.6 18.128 31.976 16.832 30.728C15.536 29.48 14.888 27.736 14.888 25.496C14.888 23.432 15.36 21.568 16.304 19.904C17.248 18.24 18.536 16.936 20.168 15.992C21.8 15.048 23.624 14.576 25.64 14.576C27.016 14.576 28.104 14.816 28.904 15.296C29.704 15.76 30.104 16.408 30.104 17.24C30.104 17.928 29.856 18.496 29.36 18.944C28.88 19.376 28.264 19.592 27.512 19.592C26.776 19.592 26.096 19.4 25.472 19.016C24.848 18.632 24.352 18.064 23.984 17.312C23.088 17.664 22.28 18.256 21.56 19.088C20.856 19.904 20.304 20.88 19.904 22.016C19.504 23.136 19.304 24.336 19.304 25.616C19.304 27.12 19.568 28.296 20.096 29.144C20.64 29.976 21.4 30.392 22.376 30.392C23.128 30.392 23.808 30.192 24.416 29.792C25.024 29.392 25.504 28.848 25.856 28.16C26.224 27.472 26.432 26.712 26.48 25.88C28.288 25.88 29.192 26.552 29.192 27.896C29.192 28.744 28.88 29.528 28.256 30.248C27.632 30.968 26.784 31.544 25.712 31.976C24.656 32.392 23.496 32.6 22.232 32.6Z" fill="white"/>
</svg>
