<svg width="146" height="44" viewBox="0 0 146 44" fill="none" xmlns="http://www.w3.org/2000/svg">
<path d="M56.8 25.92C56.92 25.92 57.0233 25.9667 57.11 26.06L57.95 26.98C57.3633 27.6733 56.6467 28.21 55.8 28.59C54.96 28.97 53.9467 29.16 52.76 29.16C51.72 29.16 50.7767 28.98 49.93 28.62C49.09 28.26 48.37 27.7567 47.77 27.11C47.1767 26.4633 46.7167 25.69 46.39 24.79C46.0633 23.89 45.9 22.9 45.9 21.82C45.9 20.74 46.07 19.75 46.41 18.85C46.7567 17.95 47.24 17.1767 47.86 16.53C48.48 15.8833 49.22 15.38 50.08 15.02C50.9467 14.66 51.9033 14.48 52.95 14.48C53.97 14.48 54.8767 14.6467 55.67 14.98C56.4633 15.3133 57.1533 15.7567 57.74 16.31L57.04 17.3C56.9933 17.3733 56.9333 17.4333 56.86 17.48C56.7933 17.5267 56.7033 17.55 56.59 17.55C56.4633 17.55 56.3133 17.4867 56.14 17.36C55.9733 17.2333 55.75 17.0933 55.47 16.94C55.1967 16.78 54.8567 16.6367 54.45 16.51C54.0433 16.3833 53.5367 16.32 52.93 16.32C52.2167 16.32 51.5633 16.4467 50.97 16.7C50.3767 16.9467 49.8633 17.3067 49.43 17.78C49.0033 18.2467 48.67 18.8233 48.43 19.51C48.1967 20.19 48.08 20.96 48.08 21.82C48.08 22.6933 48.2033 23.47 48.45 24.15C48.6967 24.83 49.0367 25.4067 49.47 25.88C49.9033 26.3533 50.4133 26.7133 51 26.96C51.5867 27.2067 52.22 27.33 52.9 27.33C53.3133 27.33 53.6833 27.3067 54.01 27.26C54.3433 27.2067 54.6467 27.13 54.92 27.03C55.2 26.93 55.4633 26.8033 55.71 26.65C55.9567 26.49 56.2 26.3 56.44 26.08C56.4933 26.0333 56.55 25.9967 56.61 25.97C56.67 25.9367 56.7333 25.92 56.8 25.92ZM63.825 18.68C64.5717 18.68 65.245 18.8033 65.845 19.05C66.4517 19.29 66.965 19.64 67.385 20.1C67.8117 20.5533 68.1383 21.1033 68.365 21.75C68.5917 22.39 68.705 23.11 68.705 23.91C68.705 24.71 68.5917 25.4333 68.365 26.08C68.1383 26.7267 67.8117 27.2767 67.385 27.73C66.965 28.1833 66.4517 28.5333 65.845 28.78C65.245 29.02 64.5717 29.14 63.825 29.14C63.0717 29.14 62.3917 29.02 61.785 28.78C61.185 28.5333 60.6717 28.1833 60.245 27.73C59.8183 27.2767 59.4883 26.7267 59.255 26.08C59.0283 25.4333 58.915 24.71 58.915 23.91C58.915 23.11 59.0283 22.39 59.255 21.75C59.4883 21.1033 59.8183 20.5533 60.245 20.1C60.6717 19.64 61.185 19.29 61.785 19.05C62.3917 18.8033 63.0717 18.68 63.825 18.68ZM63.825 27.62C64.785 27.62 65.5017 27.2967 65.975 26.65C66.4483 26.0033 66.685 25.0933 66.685 23.92C66.685 22.7467 66.4483 21.8367 65.975 21.19C65.5017 20.5367 64.785 20.21 63.825 20.21C62.8517 20.21 62.125 20.5367 61.645 21.19C61.1717 21.8367 60.935 22.7467 60.935 23.92C60.935 25.0933 61.1717 26.0033 61.645 26.65C62.125 27.2967 62.8517 27.62 63.825 27.62ZM72.7117 20.25C72.9317 20.0167 73.1617 19.8033 73.4017 19.61C73.6417 19.4167 73.8951 19.2533 74.1617 19.12C74.4351 18.98 74.7251 18.8733 75.0317 18.8C75.3451 18.72 75.6784 18.68 76.0317 18.68C76.5917 18.68 77.0817 18.7733 77.5017 18.96C77.9284 19.1467 78.2851 19.41 78.5717 19.75C78.8584 20.0833 79.0751 20.4867 79.2217 20.96C79.3684 21.4333 79.4417 21.9567 79.4417 22.53V29H77.4817V22.53C77.4817 21.8033 77.3151 21.24 76.9817 20.84C76.6484 20.4333 76.1384 20.23 75.4517 20.23C74.9517 20.23 74.4817 20.35 74.0417 20.59C73.6084 20.8233 73.2051 21.1433 72.8317 21.55V29H70.8817V18.84H72.0517C72.3251 18.84 72.4951 18.97 72.5617 19.23L72.7117 20.25ZM88.6231 21.3C88.3031 20.88 87.9565 20.5867 87.5831 20.42C87.2165 20.2533 86.8031 20.17 86.3431 20.17C85.4498 20.17 84.7565 20.4933 84.2631 21.14C83.7765 21.78 83.5331 22.7167 83.5331 23.95C83.5331 24.5967 83.5865 25.15 83.6931 25.61C83.8065 26.0633 83.9665 26.4367 84.1731 26.73C84.3865 27.0167 84.6465 27.23 84.9531 27.37C85.2598 27.5033 85.6065 27.57 85.9931 27.57C86.5598 27.57 87.0498 27.4433 87.4631 27.19C87.8765 26.9367 88.2631 26.58 88.6231 26.12V21.3ZM90.5831 14.24V29H89.4031C89.1298 29 88.9598 28.87 88.8931 28.61L88.7231 27.44C88.2898 27.9533 87.7965 28.3667 87.2431 28.68C86.6965 28.9867 86.0631 29.14 85.3431 29.14C84.7631 29.14 84.2365 29.0267 83.7631 28.8C83.2965 28.5733 82.8965 28.2433 82.5631 27.81C82.2298 27.37 81.9731 26.8267 81.7931 26.18C81.6131 25.5333 81.5231 24.79 81.5231 23.95C81.5231 23.1967 81.6231 22.4967 81.8231 21.85C82.0231 21.2033 82.3131 20.6433 82.6931 20.17C83.0731 19.6967 83.5331 19.3267 84.0731 19.06C84.6131 18.7867 85.2231 18.65 85.9031 18.65C86.5165 18.65 87.0365 18.75 87.4631 18.95C87.8965 19.15 88.2831 19.4333 88.6231 19.8V14.24H90.5831ZM97.6336 18.68C98.3803 18.68 99.0536 18.8033 99.6536 19.05C100.26 19.29 100.774 19.64 101.194 20.1C101.62 20.5533 101.947 21.1033 102.174 21.75C102.4 22.39 102.514 23.11 102.514 23.91C102.514 24.71 102.4 25.4333 102.174 26.08C101.947 26.7267 101.62 27.2767 101.194 27.73C100.774 28.1833 100.26 28.5333 99.6536 28.78C99.0536 29.02 98.3803 29.14 97.6336 29.14C96.8803 29.14 96.2003 29.02 95.5936 28.78C94.9936 28.5333 94.4803 28.1833 94.0536 27.73C93.6269 27.2767 93.2969 26.7267 93.0636 26.08C92.8369 25.4333 92.7236 24.71 92.7236 23.91C92.7236 23.11 92.8369 22.39 93.0636 21.75C93.2969 21.1033 93.6269 20.5533 94.0536 20.1C94.4803 19.64 94.9936 19.29 95.5936 19.05C96.2003 18.8033 96.8803 18.68 97.6336 18.68ZM97.6336 27.62C98.5936 27.62 99.3103 27.2967 99.7836 26.65C100.257 26.0033 100.494 25.0933 100.494 23.92C100.494 22.7467 100.257 21.8367 99.7836 21.19C99.3103 20.5367 98.5936 20.21 97.6336 20.21C96.6603 20.21 95.9336 20.5367 95.4536 21.19C94.9803 21.8367 94.7436 22.7467 94.7436 23.92C94.7436 25.0933 94.9803 26.0033 95.4536 26.65C95.9336 27.2967 96.6603 27.62 97.6336 27.62ZM105.126 29V20.44L104.066 20.31C103.913 20.2767 103.786 20.2233 103.686 20.15C103.593 20.07 103.546 19.9567 103.546 19.81V19H105.126V18.08C105.126 17.5 105.209 16.9833 105.376 16.53C105.543 16.0767 105.779 15.6933 106.086 15.38C106.399 15.06 106.773 14.82 107.206 14.66C107.646 14.4933 108.139 14.41 108.686 14.41C109.146 14.41 109.569 14.4767 109.956 14.61L109.916 15.59C109.909 15.6767 109.883 15.7433 109.836 15.79C109.789 15.83 109.726 15.86 109.646 15.88C109.573 15.9 109.479 15.9133 109.366 15.92C109.259 15.92 109.143 15.92 109.016 15.92C108.716 15.92 108.443 15.9567 108.196 16.03C107.949 16.1033 107.739 16.2267 107.566 16.4C107.393 16.5733 107.259 16.8033 107.166 17.09C107.073 17.37 107.026 17.72 107.026 18.14V19H109.876V20.42H107.086V29H105.126ZM120.387 18.84L114.747 31.95C114.687 32.0967 114.607 32.21 114.507 32.29C114.407 32.37 114.26 32.41 114.067 32.41H112.617L114.477 28.36L110.307 18.84H112.007C112.173 18.84 112.303 18.88 112.397 18.96C112.49 19.04 112.557 19.13 112.597 19.23L115.177 25.33C115.23 25.4833 115.28 25.64 115.327 25.8C115.38 25.9533 115.423 26.1067 115.457 26.26C115.503 26.1 115.553 25.9433 115.607 25.79C115.66 25.63 115.717 25.4733 115.777 25.32L118.267 19.23C118.313 19.1167 118.387 19.0233 118.487 18.95C118.587 18.8767 118.7 18.84 118.827 18.84H120.387Z" fill="white"/>
<circle cx="22.5" cy="21.5" r="17.5" fill="#8257E6"/>
<path d="M22.232 30.6C19.928 30.6 18.128 29.976 16.832 28.728C15.536 27.48 14.888 25.736 14.888 23.496C14.888 21.432 15.36 19.568 16.304 17.904C17.248 16.24 18.536 14.936 20.168 13.992C21.8 13.048 23.624 12.576 25.64 12.576C27.016 12.576 28.104 12.816 28.904 13.296C29.704 13.76 30.104 14.408 30.104 15.24C30.104 15.928 29.856 16.496 29.36 16.944C28.88 17.376 28.264 17.592 27.512 17.592C26.776 17.592 26.096 17.4 25.472 17.016C24.848 16.632 24.352 16.064 23.984 15.312C23.088 15.664 22.28 16.256 21.56 17.088C20.856 17.904 20.304 18.88 19.904 20.016C19.504 21.136 19.304 22.336 19.304 23.616C19.304 25.12 19.568 26.296 20.096 27.144C20.64 27.976 21.4 28.392 22.376 28.392C23.128 28.392 23.808 28.192 24.416 27.792C25.024 27.392 25.504 26.848 25.856 26.16C26.224 25.472 26.432 24.712 26.48 23.88C28.288 23.88 29.192 24.552 29.192 25.896C29.192 26.744 28.88 27.528 28.256 28.248C27.632 28.968 26.784 29.544 25.712 29.976C24.656 30.392 23.496 30.6 22.232 30.6Z" fill="#161318"/>
</svg>
