<svg width="146" height="44" viewBox="0 0 146 44" fill="none" xmlns="http://www.w3.org/2000/svg">
<path d="M66.16 26.304C66.304 26.304 66.428 26.36 66.532 26.472L67.54 27.576C66.836 28.408 65.976 29.052 64.96 29.508C63.952 29.964 62.736 30.192 61.312 30.192C60.064 30.192 58.932 29.976 57.916 29.544C56.908 29.112 56.044 28.508 55.324 27.732C54.612 26.956 54.06 26.028 53.668 24.948C53.276 23.868 53.08 22.68 53.08 21.384C53.08 20.088 53.284 18.9 53.692 17.82C54.108 16.74 54.688 15.812 55.432 15.036C56.176 14.26 57.064 13.656 58.096 13.224C59.136 12.792 60.284 12.576 61.54 12.576C62.764 12.576 63.852 12.776 64.804 13.176C65.756 13.576 66.584 14.108 67.288 14.772L66.448 15.96C66.392 16.048 66.32 16.12 66.232 16.176C66.152 16.232 66.044 16.26 65.908 16.26C65.756 16.26 65.576 16.184 65.368 16.032C65.168 15.88 64.9 15.712 64.564 15.528C64.236 15.336 63.828 15.164 63.34 15.012C62.852 14.86 62.244 14.784 61.516 14.784C60.66 14.784 59.876 14.936 59.164 15.24C58.452 15.536 57.836 15.968 57.316 16.536C56.804 17.096 56.404 17.788 56.116 18.612C55.836 19.428 55.696 20.352 55.696 21.384C55.696 22.432 55.844 23.364 56.14 24.18C56.436 24.996 56.844 25.688 57.364 26.256C57.884 26.824 58.496 27.256 59.2 27.552C59.904 27.848 60.664 27.996 61.48 27.996C61.976 27.996 62.42 27.968 62.812 27.912C63.212 27.848 63.576 27.756 63.904 27.636C64.24 27.516 64.556 27.364 64.852 27.18C65.148 26.988 65.44 26.76 65.728 26.496C65.792 26.44 65.86 26.396 65.932 26.364C66.004 26.324 66.08 26.304 66.16 26.304ZM74.59 17.616C75.486 17.616 76.294 17.764 77.014 18.06C77.742 18.348 78.358 18.768 78.862 19.32C79.374 19.864 79.766 20.524 80.038 21.3C80.31 22.068 80.446 22.932 80.446 23.892C80.446 24.852 80.31 25.72 80.038 26.496C79.766 27.272 79.374 27.932 78.862 28.476C78.358 29.02 77.742 29.44 77.014 29.736C76.294 30.024 75.486 30.168 74.59 30.168C73.686 30.168 72.87 30.024 72.142 29.736C71.422 29.44 70.806 29.02 70.294 28.476C69.782 27.932 69.386 27.272 69.106 26.496C68.834 25.72 68.698 24.852 68.698 23.892C68.698 22.932 68.834 22.068 69.106 21.3C69.386 20.524 69.782 19.864 70.294 19.32C70.806 18.768 71.422 18.348 72.142 18.06C72.87 17.764 73.686 17.616 74.59 17.616ZM74.59 28.344C75.742 28.344 76.602 27.956 77.17 27.18C77.738 26.404 78.022 25.312 78.022 23.904C78.022 22.496 77.738 21.404 77.17 20.628C76.602 19.844 75.742 19.452 74.59 19.452C73.422 19.452 72.55 19.844 71.974 20.628C71.406 21.404 71.122 22.496 71.122 23.904C71.122 25.312 71.406 26.404 71.974 27.18C72.55 27.956 73.422 28.344 74.59 28.344ZM85.2541 19.5C85.5181 19.22 85.7941 18.964 86.0821 18.732C86.3701 18.5 86.6741 18.304 86.9941 18.144C87.3221 17.976 87.6701 17.848 88.0381 17.76C88.4141 17.664 88.8141 17.616 89.2381 17.616C89.9101 17.616 90.4981 17.728 91.0021 17.952C91.5141 18.176 91.9421 18.492 92.2861 18.9C92.6301 19.3 92.8901 19.784 93.0661 20.352C93.2421 20.92 93.3301 21.548 93.3301 22.236V30H90.9781V22.236C90.9781 21.364 90.7781 20.688 90.3781 20.208C89.9781 19.72 89.3661 19.476 88.5421 19.476C87.9421 19.476 87.3781 19.62 86.8501 19.908C86.3301 20.188 85.8461 20.572 85.3981 21.06V30H83.0581V17.808H84.4621C84.7901 17.808 84.9941 17.964 85.0741 18.276L85.2541 19.5ZM104.348 20.76C103.964 20.256 103.548 19.904 103.1 19.704C102.66 19.504 102.164 19.404 101.612 19.404C100.54 19.404 99.7078 19.792 99.1158 20.568C98.5318 21.336 98.2398 22.46 98.2398 23.94C98.2398 24.716 98.3038 25.38 98.4318 25.932C98.5678 26.476 98.7598 26.924 99.0078 27.276C99.2638 27.62 99.5758 27.876 99.9438 28.044C100.312 28.204 100.728 28.284 101.192 28.284C101.872 28.284 102.46 28.132 102.956 27.828C103.452 27.524 103.916 27.096 104.348 26.544V20.76ZM106.7 12.288V30H105.284C104.956 30 104.752 29.844 104.672 29.532L104.468 28.128C103.948 28.744 103.356 29.24 102.692 29.616C102.036 29.984 101.276 30.168 100.412 30.168C99.7158 30.168 99.0838 30.032 98.5158 29.76C97.9558 29.488 97.4758 29.092 97.0758 28.572C96.6758 28.044 96.3678 27.392 96.1518 26.616C95.9358 25.84 95.8278 24.948 95.8278 23.94C95.8278 23.036 95.9478 22.196 96.1878 21.42C96.4278 20.644 96.7758 19.972 97.2318 19.404C97.6878 18.836 98.2398 18.392 98.8878 18.072C99.5358 17.744 100.268 17.58 101.084 17.58C101.82 17.58 102.444 17.7 102.956 17.94C103.476 18.18 103.94 18.52 104.348 18.96V12.288H106.7ZM115.16 17.616C116.056 17.616 116.864 17.764 117.584 18.06C118.312 18.348 118.928 18.768 119.432 19.32C119.944 19.864 120.336 20.524 120.608 21.3C120.88 22.068 121.016 22.932 121.016 23.892C121.016 24.852 120.88 25.72 120.608 26.496C120.336 27.272 119.944 27.932 119.432 28.476C118.928 29.02 118.312 29.44 117.584 29.736C116.864 30.024 116.056 30.168 115.16 30.168C114.256 30.168 113.44 30.024 112.712 29.736C111.992 29.44 111.376 29.02 110.864 28.476C110.352 27.932 109.956 27.272 109.676 26.496C109.404 25.72 109.268 24.852 109.268 23.892C109.268 22.932 109.404 22.068 109.676 21.3C109.956 20.524 110.352 19.864 110.864 19.32C111.376 18.768 111.992 18.348 112.712 18.06C113.44 17.764 114.256 17.616 115.16 17.616ZM115.16 28.344C116.312 28.344 117.172 27.956 117.74 27.18C118.308 26.404 118.592 25.312 118.592 23.904C118.592 22.496 118.308 21.404 117.74 20.628C117.172 19.844 116.312 19.452 115.16 19.452C113.992 19.452 113.12 19.844 112.544 20.628C111.976 21.404 111.692 22.496 111.692 23.904C111.692 25.312 111.976 26.404 112.544 27.18C113.12 27.956 113.992 28.344 115.16 28.344Z" fill="#33383C"/>
<path d="M125.448 30V19.728L124.176 19.572C123.992 19.532 123.84 19.468 123.72 19.38C123.608 19.284 123.552 19.148 123.552 18.972V18H125.448V16.896C125.448 16.2 125.548 15.58 125.748 15.036C125.948 14.492 126.232 14.032 126.6 13.656C126.976 13.272 127.424 12.984 127.944 12.792C128.472 12.592 129.064 12.492 129.72 12.492C130.272 12.492 130.78 12.572 131.244 12.732L131.196 13.908C131.188 14.012 131.156 14.092 131.1 14.148C131.044 14.196 130.968 14.232 130.872 14.256C130.784 14.28 130.672 14.296 130.536 14.304C130.408 14.304 130.268 14.304 130.116 14.304C129.756 14.304 129.428 14.348 129.132 14.436C128.836 14.524 128.584 14.672 128.376 14.88C128.168 15.088 128.008 15.364 127.896 15.708C127.784 16.044 127.728 16.464 127.728 16.968V18H131.148V19.704H127.8V30H125.448ZM143.761 17.808L136.993 33.54C136.921 33.716 136.825 33.852 136.705 33.948C136.585 34.044 136.409 34.092 136.177 34.092H134.437L136.669 29.232L131.665 17.808H133.705C133.905 17.808 134.061 17.856 134.173 17.952C134.285 18.048 134.365 18.156 134.413 18.276L137.509 25.596C137.573 25.78 137.633 25.968 137.689 26.16C137.753 26.344 137.805 26.528 137.845 26.712C137.901 26.52 137.961 26.332 138.025 26.148C138.089 25.956 138.157 25.768 138.229 25.584L141.217 18.276C141.273 18.14 141.361 18.028 141.481 17.94C141.601 17.852 141.737 17.808 141.889 17.808H143.761Z" fill="#4D3C94"/>
<circle cx="22" cy="22" r="22" fill="#4D3C94"/>
<path d="M22.232 30.6C19.928 30.6 18.128 29.976 16.832 28.728C15.536 27.48 14.888 25.736 14.888 23.496C14.888 21.432 15.36 19.568 16.304 17.904C17.248 16.24 18.536 14.936 20.168 13.992C21.8 13.048 23.624 12.576 25.64 12.576C27.016 12.576 28.104 12.816 28.904 13.296C29.704 13.76 30.104 14.408 30.104 15.24C30.104 15.928 29.856 16.496 29.36 16.944C28.88 17.376 28.264 17.592 27.512 17.592C26.776 17.592 26.096 17.4 25.472 17.016C24.848 16.632 24.352 16.064 23.984 15.312C23.088 15.664 22.28 16.256 21.56 17.088C20.856 17.904 20.304 18.88 19.904 20.016C19.504 21.136 19.304 22.336 19.304 23.616C19.304 25.12 19.568 26.296 20.096 27.144C20.64 27.976 21.4 28.392 22.376 28.392C23.128 28.392 23.808 28.192 24.416 27.792C25.024 27.392 25.504 26.848 25.856 26.16C26.224 25.472 26.432 24.712 26.48 23.88C28.288 23.88 29.192 24.552 29.192 25.896C29.192 26.744 28.88 27.528 28.256 28.248C27.632 28.968 26.784 29.544 25.712 29.976C24.656 30.392 23.496 30.6 22.232 30.6Z" fill="white"/>
</svg>
