<svg width="132" height="41" viewBox="0 0 132 41" fill="none" xmlns="http://www.w3.org/2000/svg">
<path d="M52.16 28.304C52.304 28.304 52.428 28.36 52.532 28.472L53.54 29.576C52.836 30.408 51.976 31.052 50.96 31.508C49.952 31.964 48.736 32.192 47.312 32.192C46.064 32.192 44.932 31.976 43.916 31.544C42.908 31.112 42.044 30.508 41.324 29.732C40.612 28.956 40.06 28.028 39.668 26.948C39.276 25.868 39.08 24.68 39.08 23.384C39.08 22.088 39.284 20.9 39.692 19.82C40.108 18.74 40.688 17.812 41.432 17.036C42.176 16.26 43.064 15.656 44.096 15.224C45.136 14.792 46.284 14.576 47.54 14.576C48.764 14.576 49.852 14.776 50.804 15.176C51.756 15.576 52.584 16.108 53.288 16.772L52.448 17.96C52.392 18.048 52.32 18.12 52.232 18.176C52.152 18.232 52.044 18.26 51.908 18.26C51.756 18.26 51.576 18.184 51.368 18.032C51.168 17.88 50.9 17.712 50.564 17.528C50.236 17.336 49.828 17.164 49.34 17.012C48.852 16.86 48.244 16.784 47.516 16.784C46.66 16.784 45.876 16.936 45.164 17.24C44.452 17.536 43.836 17.968 43.316 18.536C42.804 19.096 42.404 19.788 42.116 20.612C41.836 21.428 41.696 22.352 41.696 23.384C41.696 24.432 41.844 25.364 42.14 26.18C42.436 26.996 42.844 27.688 43.364 28.256C43.884 28.824 44.496 29.256 45.2 29.552C45.904 29.848 46.664 29.996 47.48 29.996C47.976 29.996 48.42 29.968 48.812 29.912C49.212 29.848 49.576 29.756 49.904 29.636C50.24 29.516 50.556 29.364 50.852 29.18C51.148 28.988 51.44 28.76 51.728 28.496C51.792 28.44 51.86 28.396 51.932 28.364C52.004 28.324 52.08 28.304 52.16 28.304ZM60.59 19.616C61.486 19.616 62.294 19.764 63.014 20.06C63.742 20.348 64.358 20.768 64.862 21.32C65.374 21.864 65.766 22.524 66.038 23.3C66.31 24.068 66.446 24.932 66.446 25.892C66.446 26.852 66.31 27.72 66.038 28.496C65.766 29.272 65.374 29.932 64.862 30.476C64.358 31.02 63.742 31.44 63.014 31.736C62.294 32.024 61.486 32.168 60.59 32.168C59.686 32.168 58.87 32.024 58.142 31.736C57.422 31.44 56.806 31.02 56.294 30.476C55.782 29.932 55.386 29.272 55.106 28.496C54.834 27.72 54.698 26.852 54.698 25.892C54.698 24.932 54.834 24.068 55.106 23.3C55.386 22.524 55.782 21.864 56.294 21.32C56.806 20.768 57.422 20.348 58.142 20.06C58.87 19.764 59.686 19.616 60.59 19.616ZM60.59 30.344C61.742 30.344 62.602 29.956 63.17 29.18C63.738 28.404 64.022 27.312 64.022 25.904C64.022 24.496 63.738 23.404 63.17 22.628C62.602 21.844 61.742 21.452 60.59 21.452C59.422 21.452 58.55 21.844 57.974 22.628C57.406 23.404 57.122 24.496 57.122 25.904C57.122 27.312 57.406 28.404 57.974 29.18C58.55 29.956 59.422 30.344 60.59 30.344ZM71.2541 21.5C71.5181 21.22 71.7941 20.964 72.0821 20.732C72.3701 20.5 72.6741 20.304 72.9941 20.144C73.3221 19.976 73.6701 19.848 74.0381 19.76C74.4141 19.664 74.8141 19.616 75.2381 19.616C75.9101 19.616 76.4981 19.728 77.0021 19.952C77.5141 20.176 77.9421 20.492 78.2861 20.9C78.6301 21.3 78.8901 21.784 79.0661 22.352C79.2421 22.92 79.3301 23.548 79.3301 24.236V32H76.9781V24.236C76.9781 23.364 76.7781 22.688 76.3781 22.208C75.9781 21.72 75.3661 21.476 74.5421 21.476C73.9421 21.476 73.3781 21.62 72.8501 21.908C72.3301 22.188 71.8461 22.572 71.3981 23.06V32H69.0581V19.808H70.4621C70.7901 19.808 70.9941 19.964 71.0741 20.276L71.2541 21.5ZM90.3478 22.76C89.9638 22.256 89.5478 21.904 89.0998 21.704C88.6598 21.504 88.1638 21.404 87.6118 21.404C86.5398 21.404 85.7078 21.792 85.1158 22.568C84.5318 23.336 84.2398 24.46 84.2398 25.94C84.2398 26.716 84.3038 27.38 84.4318 27.932C84.5678 28.476 84.7598 28.924 85.0078 29.276C85.2638 29.62 85.5758 29.876 85.9438 30.044C86.3118 30.204 86.7278 30.284 87.1918 30.284C87.8718 30.284 88.4598 30.132 88.9558 29.828C89.4518 29.524 89.9158 29.096 90.3478 28.544V22.76ZM92.6998 14.288V32H91.2838C90.9558 32 90.7518 31.844 90.6718 31.532L90.4678 30.128C89.9478 30.744 89.3558 31.24 88.6918 31.616C88.0358 31.984 87.2758 32.168 86.4118 32.168C85.7158 32.168 85.0838 32.032 84.5158 31.76C83.9558 31.488 83.4758 31.092 83.0758 30.572C82.6758 30.044 82.3678 29.392 82.1518 28.616C81.9358 27.84 81.8278 26.948 81.8278 25.94C81.8278 25.036 81.9478 24.196 82.1878 23.42C82.4278 22.644 82.7758 21.972 83.2318 21.404C83.6878 20.836 84.2398 20.392 84.8878 20.072C85.5358 19.744 86.2678 19.58 87.0838 19.58C87.8198 19.58 88.4438 19.7 88.9558 19.94C89.4758 20.18 89.9398 20.52 90.3478 20.96V14.288H92.6998ZM101.16 19.616C102.056 19.616 102.864 19.764 103.584 20.06C104.312 20.348 104.928 20.768 105.432 21.32C105.944 21.864 106.336 22.524 106.608 23.3C106.88 24.068 107.016 24.932 107.016 25.892C107.016 26.852 106.88 27.72 106.608 28.496C106.336 29.272 105.944 29.932 105.432 30.476C104.928 31.02 104.312 31.44 103.584 31.736C102.864 32.024 102.056 32.168 101.16 32.168C100.256 32.168 99.4403 32.024 98.7123 31.736C97.9923 31.44 97.3763 31.02 96.8643 30.476C96.3523 29.932 95.9563 29.272 95.6763 28.496C95.4043 27.72 95.2683 26.852 95.2683 25.892C95.2683 24.932 95.4043 24.068 95.6763 23.3C95.9563 22.524 96.3523 21.864 96.8643 21.32C97.3763 20.768 97.9923 20.348 98.7123 20.06C99.4403 19.764 100.256 19.616 101.16 19.616ZM101.16 30.344C102.312 30.344 103.172 29.956 103.74 29.18C104.308 28.404 104.592 27.312 104.592 25.904C104.592 24.496 104.308 23.404 103.74 22.628C103.172 21.844 102.312 21.452 101.16 21.452C99.9923 21.452 99.1203 21.844 98.5443 22.628C97.9763 23.404 97.6923 24.496 97.6923 25.904C97.6923 27.312 97.9763 28.404 98.5443 29.18C99.1203 29.956 99.9923 30.344 101.16 30.344Z" fill="#566B87"/>
<path d="M111.448 32V21.728L110.176 21.572C109.992 21.532 109.84 21.468 109.72 21.38C109.608 21.284 109.552 21.148 109.552 20.972V20H111.448V18.896C111.448 18.2 111.548 17.58 111.748 17.036C111.948 16.492 112.232 16.032 112.6 15.656C112.976 15.272 113.424 14.984 113.944 14.792C114.472 14.592 115.064 14.492 115.72 14.492C116.272 14.492 116.78 14.572 117.244 14.732L117.196 15.908C117.188 16.012 117.156 16.092 117.1 16.148C117.044 16.196 116.968 16.232 116.872 16.256C116.784 16.28 116.672 16.296 116.536 16.304C116.408 16.304 116.268 16.304 116.116 16.304C115.756 16.304 115.428 16.348 115.132 16.436C114.836 16.524 114.584 16.672 114.376 16.88C114.168 17.088 114.008 17.364 113.896 17.708C113.784 18.044 113.728 18.464 113.728 18.968V20H117.148V21.704H113.8V32H111.448ZM129.761 19.808L122.993 35.54C122.921 35.716 122.825 35.852 122.705 35.948C122.585 36.044 122.409 36.092 122.177 36.092H120.437L122.669 31.232L117.665 19.808H119.705C119.905 19.808 120.061 19.856 120.173 19.952C120.285 20.048 120.365 20.156 120.413 20.276L123.509 27.596C123.573 27.78 123.633 27.968 123.689 28.16C123.753 28.344 123.805 28.528 123.845 28.712C123.901 28.52 123.961 28.332 124.025 28.148C124.089 27.956 124.157 27.768 124.229 27.584L127.217 20.276C127.273 20.14 127.361 20.028 127.481 19.94C127.601 19.852 127.737 19.808 127.889 19.808H129.761Z" fill="#74B1B8"/>
<circle cx="17.5" cy="23.5" r="17.5" fill="#74B1B8"/>
<path d="M17.232 32.6C14.928 32.6 13.128 31.976 11.832 30.728C10.536 29.48 9.888 27.736 9.888 25.496C9.888 23.432 10.36 21.568 11.304 19.904C12.248 18.24 13.536 16.936 15.168 15.992C16.8 15.048 18.624 14.576 20.64 14.576C22.016 14.576 23.104 14.816 23.904 15.296C24.704 15.76 25.104 16.408 25.104 17.24C25.104 17.928 24.856 18.496 24.36 18.944C23.88 19.376 23.264 19.592 22.512 19.592C21.776 19.592 21.096 19.4 20.472 19.016C19.848 18.632 19.352 18.064 18.984 17.312C18.088 17.664 17.28 18.256 16.56 19.088C15.856 19.904 15.304 20.88 14.904 22.016C14.504 23.136 14.304 24.336 14.304 25.616C14.304 27.12 14.568 28.296 15.096 29.144C15.64 29.976 16.4 30.392 17.376 30.392C18.128 30.392 18.808 30.192 19.416 29.792C20.024 29.392 20.504 28.848 20.856 28.16C21.224 27.472 21.432 26.712 21.48 25.88C23.288 25.88 24.192 26.552 24.192 27.896C24.192 28.744 23.88 29.528 23.256 30.248C22.632 30.968 21.784 31.544 20.712 31.976C19.656 32.392 18.496 32.6 17.232 32.6Z" fill="white"/>
</svg>
