<svg width="35" height="41" viewBox="0 0 35 41" fill="none" xmlns="http://www.w3.org/2000/svg">
<circle cx="17.5" cy="23.5" r="17.5" fill="#8257E6"/>
<path d="M17.232 32.6C14.928 32.6 13.128 31.976 11.832 30.728C10.536 29.48 9.888 27.736 9.888 25.496C9.888 23.432 10.36 21.568 11.304 19.904C12.248 18.24 13.536 16.936 15.168 15.992C16.8 15.048 18.624 14.576 20.64 14.576C22.016 14.576 23.104 14.816 23.904 15.296C24.704 15.76 25.104 16.408 25.104 17.24C25.104 17.928 24.856 18.496 24.36 18.944C23.88 19.376 23.264 19.592 22.512 19.592C21.776 19.592 21.096 19.4 20.472 19.016C19.848 18.632 19.352 18.064 18.984 17.312C18.088 17.664 17.28 18.256 16.56 19.088C15.856 19.904 15.304 20.88 14.904 22.016C14.504 23.136 14.304 24.336 14.304 25.616C14.304 27.12 14.568 28.296 15.096 29.144C15.64 29.976 16.4 30.392 17.376 30.392C18.128 30.392 18.808 30.192 19.416 29.792C20.024 29.392 20.504 28.848 20.856 28.16C21.224 27.472 21.432 26.712 21.48 25.88C23.288 25.88 24.192 26.552 24.192 27.896C24.192 28.744 23.88 29.528 23.256 30.248C22.632 30.968 21.784 31.544 20.712 31.976C19.656 32.392 18.496 32.6 17.232 32.6Z" fill="white"/>
</svg>
